<svg xmlns="http://www.w3.org/2000/svg">
    <symbol xmlns="http://www.w3.org/2000/svg" id="fb" viewBox="0 0 8 16">
       <path fill-rule="evenodd" clip-rule="evenodd" d="M5.12005 5.4798V3.96782C5.12005 3.39182 5.48004 3.24782 5.76804 3.24782H7.42406V0.799805H5.12005C2.60005 0.799805 2.60005 2.67181 2.60005 3.82381V5.4798H0.800049V7.9998H2.60005V15.1998H5.12005V7.9998H7.20804L7.49604 5.4798H5.12005Z" />
    </symbol>
	<symbol xmlns="http://www.w3.org/2000/svg" id="twitter" viewBox="0 0 16 13">
		<path fill-rule="evenodd" clip-rule="evenodd" d="M16 1.89746C15.4483 2.13391 14.8177 2.29153 14.1084 2.37035C14.7389 1.97626 15.2906 1.34571 15.5271 0.636346C14.8966 1.03043 14.1872 1.26689 13.4778 1.42452C12.9261 0.793981 12.0591 0.399902 11.1133 0.399902C9.30049 0.399902 7.88178 1.81862 7.88178 3.55261C7.88178 3.78906 7.88177 4.02554 7.96059 4.26199C5.28079 4.10435 2.91626 2.84326 1.26109 0.951636C0.945814 1.42454 0.78818 1.97627 0.78818 2.52799C0.78818 3.63144 1.3399 4.57722 2.2069 5.20776C1.65517 5.20776 1.18226 5.05013 0.709357 4.81368C0.709357 4.81368 0.709357 4.8137 0.709357 4.89252C0.709357 6.46888 1.81281 7.72996 3.31034 8.04523C3.07389 8.12405 2.75862 8.12403 2.44335 8.12403C2.2069 8.12403 2.04926 8.12405 1.81281 8.04523C2.2069 9.30632 3.38916 10.2521 4.80788 10.2521C3.70443 11.1191 2.28572 11.592 0.78818 11.592C0.551727 11.592 0.236456 11.592 2.40533e-06 11.5132C1.41872 12.459 3.15271 12.9319 4.96552 12.9319C10.8768 12.9319 14.1872 8.04524 14.1872 3.8679C14.1872 3.71027 14.1872 3.55263 14.1872 3.47381C15.0542 3.07972 15.6059 2.528 16 1.89746Z"/>
	</symbol>
	<symbol xmlns="http://www.w3.org/2000/svg" id="linkedin" viewBox="0 0 16 16">
		<path d="M14.12 0.799822H1.88005C1.30405 0.799822 0.80005 1.23397 0.80005 1.81286V14.1868C0.80005 14.7657 1.30405 15.1998 1.88005 15.1998H14.12C14.696 15.1998 15.2 14.7657 15.2 14.1868V1.81286C15.2 1.30633 14.696 0.799822 14.12 0.799822ZM5.04805 13.1737H2.88805V6.2993H5.04805V13.1737ZM3.96805 5.28622C3.24805 5.28622 2.74405 4.70736 2.74405 4.0561C2.74405 3.40485 3.32005 2.82594 3.96805 2.82594C4.61605 2.82594 5.19205 3.40485 5.19205 4.0561C5.26405 4.77972 4.68805 5.28622 3.96805 5.28622ZM13.04 13.1737H10.88V9.84505C10.88 9.04907 10.88 8.036 9.80004 8.036C8.72004 8.036 8.50405 8.90435 8.50405 9.84505V13.246H6.34405V6.37165H8.36004V7.31239C8.64804 6.73349 9.36805 6.22696 10.376 6.22696C12.536 6.22696 12.9681 7.67419 12.9681 9.48324V13.1737H13.04Z" />
	</symbol>
	<symbol xmlns="http://www.w3.org/2000/svg" id="search" viewBox="0 0 22 22">
		<path d="M21 21L14.8702 14.8702M14.8702 14.8702C16.3406 13.3999 17.25 11.3687 17.25 9.125C17.25 4.63769 13.6123 1 9.125 1C4.63769 1 1 4.63769 1 9.125C1 13.6123 4.63769 17.25 9.125 17.25C11.3687 17.25 13.3999 16.3406 14.8702 14.8702Z" stroke="#333333" stroke-linecap="round" stroke-linejoin="round"/>
	</symbol>
	<symbol xmlns="http://www.w3.org/2000/svg" id="heart" viewBox="0 0 27 24">
		<path d="M13.4996 22.4404C-10.6666 9.08329 6.25009 -5.4167 13.4996 3.7522C20.7501 -5.4167 37.6667 9.08329 13.4996 22.4404Z" stroke="#333333"/>
	</symbol>
	<symbol xmlns="http://www.w3.org/2000/svg" id="basket" viewBox="0 0 24 24">
		<path d="M7 9.5H3.25L0.75 23.25H23.25L20.75 9.5H17M7 9.5V5.75C7 2.98858 9.23858 0.75 12 0.75V0.75C14.7614 0.75 17 2.98858 17 5.75V9.5M7 9.5H17M7 9.5V13.25M17 9.5V13.25" stroke="#333333" stroke-linecap="round" stroke-linejoin="round"/>
	</symbol>
	<symbol xmlns="http://www.w3.org/2000/svg" id="person" viewBox="0 0 17 24">
		<path d="M1 23C1 23 3.5 18.875 8.5 18.875C13.5 18.875 16 23 16 23M13.2727 7.1875C13.2727 10.6048 11.1359 13.375 8.5 13.375C5.8641 13.375 3.72727 10.6048 3.72727 7.1875C3.72727 3.77024 5.8641 1 8.5 1C11.1359 1 13.2727 3.77024 13.2727 7.1875Z" stroke="#333333" stroke-linecap="round"/>
	</symbol>
	<symbol xmlns="http://www.w3.org/2000/svg" id="dropdown" viewBox="0 0 11 7">
		<path d="M9.85975 1.54027C10.0597 1.35027 10.0597 1.04027 9.85975 0.860273L9.13978 0.180281C8.93978 -0.00971924 8.61975 -0.00971924 8.42975 0.180281L5.02976 3.47026L1.59977 0.150312C1.39977 -0.0396875 1.07977 -0.0396875 0.879767 0.150312L0.159766 0.830305C-0.0402344 1.02031 -0.0402344 1.3203 0.159766 1.5103L4.66978 5.86027C4.86978 6.05027 5.18978 6.05027 5.38978 5.86027L9.85975 1.54027Z"/>
	</symbol>
	<symbol xmlns="http://www.w3.org/2000/svg" id="transport" viewBox="0 0 46 50">
		<path d="M22.0521 41.0045L42.4753 35.5321M1.00049 9.12036L4.90384 8.07446C5.97077 7.78858 7.06745 8.42174 7.35333 9.48867L14.6534 36.7328M30.0743 24.262L27.9896 16.4817M27.9896 16.4817L25.8537 20.1811M27.9896 16.4817L31.6889 18.6175M37.6398 9.70524L41.8198 25.3054C42.2487 26.9058 41.2989 28.5508 39.6985 28.9797L24.0983 33.1597C22.4979 33.5885 20.8529 32.6388 20.4241 31.0384L16.244 15.4382C15.8152 13.8378 16.7649 12.1928 18.3653 11.764L33.9655 7.58392C35.5659 7.15509 37.2109 8.10484 37.6398 9.70524Z" stroke="#333333" stroke-linecap="round" stroke-linejoin="round"/>
	</symbol>
	<symbol xmlns="http://www.w3.org/2000/svg" id="phone" viewBox="0 0 43 43">
		<path fill-rule="evenodd" clip-rule="evenodd" d="M1 21.5C1 10.1782 10.1782 1 21.5 1C32.8196 1 42 10.3194 42 21.5C42 28.413 38.9294 32.7519 37.3536 34.5244C37.1701 34.7308 37.1887 35.0468 37.3951 35.2303C37.6014 35.4138 37.9175 35.3952 38.101 35.1888C39.7837 33.296 43 28.7306 43 21.5C43 9.77153 33.3763 0 21.5 0C9.62588 0 0 9.62588 0 21.5C0 33.3763 9.77153 43 21.5 43C27.3302 43 30.7166 41.0647 32.2562 38.7422C33.6603 36.6241 33.5074 34.131 32.1217 32.8574C32.2182 32.6984 32.3039 32.5321 32.3779 32.3595L32.8058 31.3609C33.2614 30.2979 32.8938 29.0612 31.9315 28.4198L28.611 26.2061C27.5086 25.4712 26.0192 25.7691 25.2842 26.8715L24.5028 28.0435C24.3808 28.2265 24.2629 28.3149 24.157 28.3429C23.4849 28.5205 21.2959 28.7263 17.7848 25.2152C14.2738 21.7041 14.4795 19.5151 14.6571 18.843C14.6851 18.7371 14.7735 18.6192 14.9565 18.4972L16.1285 17.7158C17.231 16.9808 17.5288 15.4914 16.7939 14.389L14.5802 11.0685C13.9388 10.1062 12.7021 9.73862 11.6391 10.1942L10.6405 10.6221C9.77326 10.9938 9.06579 11.6609 8.6438 12.5049C8.32103 13.1504 8.04886 13.872 8.01181 14.66C7.90393 16.9546 8.4209 22.4445 14.4882 28.5118C20.5555 34.5791 26.0454 35.0961 28.34 34.9882C29.128 34.9511 29.8496 34.679 30.4951 34.3562C30.8661 34.1707 31.2029 33.9301 31.4954 33.645C32.3731 34.5273 32.6249 36.3762 31.4227 38.1896C30.13 40.1398 27.1243 42 21.5 42C10.3194 42 1 32.8196 1 21.5ZM12.0331 11.1133C12.6529 10.8477 13.3741 11.062 13.7482 11.6232L15.9619 14.9437C16.3904 15.5866 16.2167 16.4551 15.5738 16.8837L14.4018 17.6651C14.1169 17.8551 13.806 18.1497 13.6903 18.5875C13.3973 19.6962 13.3906 22.2352 17.0777 25.9223C20.7648 29.6094 23.3038 29.6026 24.4125 29.3097C24.8503 29.194 25.1449 28.8831 25.3349 28.5982L26.1163 27.4262C26.5449 26.7833 27.4134 26.6096 28.0563 27.0381L31.3768 29.2518C31.938 29.6259 32.1523 30.3471 31.8867 30.9669L31.4587 31.9655C31.1802 32.6154 30.6803 33.1456 30.0479 33.4618C29.46 33.7557 28.8826 33.9616 28.2931 33.9893C26.2465 34.0855 21.0412 33.6506 15.1953 27.8047C9.34942 21.9588 8.91449 16.7535 9.01071 14.7069C9.03843 14.1174 9.24427 13.54 9.53823 12.9521C9.85444 12.3197 10.3846 11.8198 11.0345 11.5413L12.0331 11.1133ZM20 8.5C20 8.22386 20.2239 8 20.5 8C28.5081 8 35 14.4919 35 22.5C35 22.7761 34.7761 23 34.5 23C34.2239 23 34 22.7761 34 22.5C34 15.0442 27.9558 9 20.5 9C20.2239 9 20 8.77614 20 8.5ZM20.5 14C20.2239 14 20 14.2239 20 14.5C20 14.7761 20.2239 15 20.5 15C24.6421 15 28 18.3579 28 22.5C28 22.7761 28.2239 23 28.5 23C28.7761 23 29 22.7761 29 22.5C29 17.8056 25.1944 14 20.5 14Z" fill="#333333"/>
	</symbol>
	<symbol xmlns="http://www.w3.org/2000/svg" id="tools" viewBox="0 0 38 44">
		<path d="M19 1L37 11V33L19 43L1 33V11L19 1Z" stroke="#333333" stroke-linecap="round" stroke-linejoin="round"/>
		<path d="M19 21L37 11M19 21L1 11M19 21V43" stroke="#333333" stroke-linecap="round" stroke-linejoin="round"/>
	</symbol>
	<symbol xmlns="http://www.w3.org/2000/svg" id="bisiness" viewBox="0 0 73 74">
		<path d="M55.7768 30.0635C54.7969 27.2848 53.1957 24.6764 50.9733 22.454C43.0227 14.5035 30.1324 14.5035 22.1819 22.454L14.5724 30.0635M17.3783 43.6359C18.3583 46.4145 19.9594 49.0229 22.1819 51.2454C30.1324 59.1959 43.0227 59.1959 50.9733 51.2454L58.5828 43.6359M14.5724 30.0635L14.5724 16.4911M14.5724 30.0635L28.14 30.0635M58.5828 43.6359L58.5828 57.2083M58.5828 43.6359L45.015 43.6359" stroke="#333333" stroke-linecap="round" stroke-linejoin="round"/>
	</symbol>
	<symbol xmlns="http://www.w3.org/2000/svg" id="send" viewBox="0 0 32 32">
		<path d="M26.9183 6.40415L16.9962 28.4533C16.6298 29.2674 15.4614 29.2299 15.1479 28.394L12.1598 20.4256C12.0584 20.1552 11.845 19.9418 11.5746 19.8404L3.60611 16.8522C2.77023 16.5388 2.73278 15.3703 3.54687 15.004L25.596 5.08187C26.4352 4.70422 27.2959 5.56493 26.9183 6.40415Z" stroke="#333333" stroke-linecap="round" stroke-linejoin="round"/>
	</symbol>
	<symbol xmlns="http://www.w3.org/2000/svg" id="arrow" viewBox="0 0 16 16">
		<path fill-rule="evenodd" clip-rule="evenodd" d="M1 8.99997H12.17L7.29 13.88C6.9 14.27 6.9 14.91 7.29 15.3C7.68 15.69 8.31 15.69 8.7 15.3L15.29 8.70997C15.68 8.31997 15.68 7.68997 15.29 7.29997L8.71 0.699971C8.32 0.309971 7.69 0.309971 7.3 0.699971C6.91 1.08997 6.91 1.71997 7.3 2.10997L12.17 6.99997H1C0.45 6.99997 0 7.44997 0 7.99997C0 8.54997 0.45 8.99997 1 8.99997Z"/>
	</symbol>
	<symbol xmlns="http://www.w3.org/2000/svg" id="arrow-prev" viewBox="0 0 16 16">
		<path fill-rule="evenodd" clip-rule="evenodd" d="M15 7.00003L3.83 7.00003L8.71 2.12003C9.1 1.73003 9.1 1.09003 8.71 0.700029C8.32 0.310028 7.69 0.310028 7.3 0.700029L0.710001 7.29003C0.32 7.68003 0.32 8.31003 0.710001 8.70003L7.29 15.3C7.68 15.69 8.31 15.69 8.7 15.3C9.09 14.91 9.09 14.28 8.7 13.89L3.83 9.00003L15 9.00003C15.55 9.00003 16 8.55003 16 8.00003C16 7.45003 15.55 7.00003 15 7.00003Z"/>
	</symbol>
	<symbol xmlns="http://www.w3.org/2000/svg" id="filter" viewBox="0 0 18 18">
		<path fill-rule="evenodd" clip-rule="evenodd" d="M0 15C0 15.55 0.45 16 1 16H6V14H1C0.45 14 0 14.45 0 15ZM0 3C0 3.55 0.45 4 1 4H10V2H1C0.45 2 0 2.45 0 3ZM10 17V16H17C17.55 16 18 15.55 18 15C18 14.45 17.55 14 17 14H10V13C10 12.45 9.55 12 9 12C8.45 12 8 12.45 8 13V17C8 17.55 8.45 18 9 18C9.55 18 10 17.55 10 17ZM4 7V8H1C0.45 8 0 8.45 0 9C0 9.55 0.45 10 1 10H4V11C4 11.55 4.45 12 5 12C5.55 12 6 11.55 6 11V7C6 6.45 5.55 6 5 6C4.45 6 4 6.45 4 7ZM18 9C18 8.45 17.55 8 17 8H8V10H17C17.55 10 18 9.55 18 9ZM13 6C13.55 6 14 5.55 14 5V4H17C17.55 4 18 3.55 18 3C18 2.45 17.55 2 17 2H14V1C14 0.45 13.55 0 13 0C12.45 0 12 0.45 12 1V5C12 5.55 12.45 6 13 6Z"/>
	</symbol>
	<symbol xmlns="http://www.w3.org/2000/svg" id="error" viewBox="0 0 374 444">
		<path d="M353.907 152.072L194.417 106.659V84.734C214.397 81.18 229.614 63.682 229.614 42.697C229.614 19.154 210.46 0 186.917 0C163.374 0 144.22 19.154 144.22 42.697C144.22 46.839 147.578 50.197 151.72 50.197C155.862 50.197 159.22 46.839 159.22 42.697C159.22 27.425 171.645 15 186.917 15C202.189 15 214.614 27.425 214.614 42.697C214.614 57.969 202.189 70.394 186.917 70.394C182.775 70.394 179.417 73.752 179.417 77.894V106.66L19.9282 152.072C6.67221 155.846 -1.25479 168.015 0.650205 181.666C2.55621 195.316 13.5122 204.85 27.2952 204.85H37.4172V215.834H17.9172C13.7752 215.834 10.4172 219.192 10.4172 223.334V436.334C10.4172 440.476 13.7752 443.834 17.9172 443.834H355.917C360.059 443.834 363.417 440.476 363.417 436.334V223.334C363.417 219.192 360.059 215.834 355.917 215.834H336.417V204.85H346.539C360.322 204.85 371.278 195.316 373.184 181.666C375.09 168.016 367.162 155.847 353.907 152.072ZM348.417 230.834V428.834H25.4172V230.834H37.4172V233.334C37.4172 237.476 40.7752 240.834 44.9172 240.834C49.0592 240.834 52.4172 237.476 52.4172 233.334V230.834H321.417V233.334C321.417 237.476 324.775 240.834 328.917 240.834C333.059 240.834 336.417 237.476 336.417 233.334V230.834H348.417ZM321.417 215.834H52.4172V204.85H321.417V215.834ZM358.328 179.592C357.667 184.324 354.183 189.85 346.539 189.85H336.417V183.334C336.417 179.192 333.059 175.834 328.917 175.834C324.775 175.834 321.417 179.192 321.417 183.334V189.85H52.4172V183.334C52.4172 179.192 49.0592 175.834 44.9172 175.834C40.7752 175.834 37.4172 179.192 37.4172 183.334V189.85H27.2952C19.6502 189.85 16.1672 184.324 15.5062 179.592C14.8462 174.861 16.6832 168.592 24.0352 166.499L186.917 120.12L349.8 166.499C357.152 168.592 358.989 174.86 358.328 179.592Z" fill="black"/>
	</symbol>
	<symbol xmlns="http://www.w3.org/2000/svg" id="arrow-banner" viewBox="0 0 13 24">
		<path d="M1 1L12 12L1 23" stroke="#333333" stroke-linecap="round" stroke-linejoin="round"/>
	</symbol>

</svg>
